<svg version="1.1" id="Layer_1" xmlns="http://www.w3.org/2000/svg" xmlns:xlink="http://www.w3.org/1999/xlink" x="0px" y="0px"
	 width="100%" viewBox="0 0 936 686" enable-background="new 0 0 936 686" xml:space="preserve">
<path fill="#000000" opacity="1.000000" stroke="none" 
	d="
M643.000000,687.000000 
	C428.666718,687.000000 214.833466,687.000000 1.000143,687.000000 
	C1.000096,458.333466 1.000096,229.666931 1.000048,1.000297 
	C312.999786,1.000198 624.999573,1.000198 936.999512,1.000099 
	C936.999634,229.666382 936.999634,458.332764 936.999817,686.999573 
	C839.166687,687.000000 741.333313,687.000000 643.000000,687.000000 
M411.788666,449.818451 
	C411.503693,449.870270 411.218719,449.922089 410.695557,450.714233 
	C410.168060,457.141937 409.640564,463.569672 409.071381,470.872467 
	C409.081207,472.915558 409.091064,474.958618 409.102509,477.816650 
	C410.023254,484.211670 411.507080,490.587402 411.726624,497.006409 
	C412.021729,505.634491 411.187836,514.294617 411.112640,522.943420 
	C410.980347,538.156250 411.783203,553.415527 407.705261,568.343628 
	C407.103577,570.546143 406.472809,573.261658 407.220367,575.218384 
	C409.920288,582.285278 406.900757,586.369446 401.464996,590.516113 
	C399.196381,592.246643 397.148743,597.132141 398.044373,599.359070 
	C398.985352,601.698792 403.499207,603.699341 406.573608,603.890686 
	C419.024353,604.665588 431.521637,604.854126 444.002563,604.880859 
	C447.573151,604.888489 451.193939,603.804871 454.705048,602.889343 
	C458.173981,601.984741 459.399445,599.651794 458.523529,596.002380 
	C458.145111,594.425720 458.004608,591.839783 458.912842,591.060608 
	C465.016449,585.823730 465.145233,578.946655 465.015167,571.826172 
	C464.811493,560.675842 464.319702,549.520020 467.607452,538.586426 
	C468.191315,536.644836 466.798553,534.152283 466.493622,531.890564 
	C465.953827,527.886230 465.248718,523.870178 465.162964,519.847290 
	C465.056976,514.877441 465.857300,509.880005 465.634094,504.922943 
	C465.379913,499.277924 460.248169,494.448975 454.463715,493.762573 
	C454.689972,494.258392 454.765076,494.843719 455.091766,495.077545 
	C464.437531,501.767059 465.566406,510.593628 461.982361,520.778809 
	C460.535706,524.889893 461.064972,528.676575 463.287781,532.703186 
	C464.665527,535.198853 465.084961,539.007507 464.309082,541.770325 
	C461.217438,552.779114 461.644318,563.784973 462.878662,574.928467 
	C463.789276,583.149231 459.466522,588.946106 451.293060,589.004395 
	C441.210052,589.076294 431.020081,588.538757 421.058228,587.048523 
	C411.613739,585.635681 407.423676,578.180237 410.143280,568.893188 
	C414.534851,553.896484 412.343811,538.447510 413.809937,523.258362 
	C414.507172,516.035278 414.051819,508.699310 414.780121,501.481232 
	C415.661652,492.744995 413.487701,484.784790 410.085327,476.100952 
	C410.072021,474.072845 410.058716,472.044708 410.470520,469.396606 
	C410.946350,462.931427 411.422180,456.466217 411.788666,449.818451 
M460.958893,491.219330 
	C461.463104,482.995392 461.900665,474.766388 462.520416,466.551178 
	C462.667053,464.607086 462.910553,462.336151 463.986633,460.851196 
	C470.470978,451.903046 463.485321,443.662476 463.168701,435.072571 
	C462.277222,436.993317 462.099274,438.913391 462.042755,440.837067 
	C461.862610,446.968781 461.911987,453.113251 461.533875,459.231842 
	C460.894623,469.575195 459.973572,479.900940 459.243896,490.239227 
	C459.177338,491.182526 459.638916,492.163086 460.168396,493.388397 
	C460.687317,493.436829 461.206268,493.485291 461.725189,493.533722 
	C461.465057,493.042328 461.204926,492.550934 460.958893,491.219330 
M542.007263,418.030518 
	C538.847717,418.102386 535.667358,417.973816 532.533936,418.298065 
	C528.817322,418.682678 526.119873,420.972778 525.876465,424.635773 
	C525.676086,427.649658 526.454285,430.851807 527.392944,433.780060 
	C528.175781,436.222290 530.523621,438.267792 530.940369,440.701050 
	C531.860962,446.075287 533.572021,448.224243 538.727722,448.565857 
	C544.146057,448.924835 548.987244,446.259216 549.327881,441.655151 
	C549.786316,435.459717 548.355408,429.393280 544.986755,423.907074 
	C544.417542,425.361877 544.465759,426.712158 544.712708,428.025024 
	C545.326904,431.290375 546.190369,434.515808 546.664001,437.799072 
	C547.428101,443.095215 543.205017,446.925201 538.107483,445.656555 
	C534.355774,444.722809 533.758789,441.600403 533.074219,438.399658 
	C532.575562,436.068146 531.697632,433.778900 530.695435,431.606171 
	C529.885010,429.849182 527.374329,427.521057 527.819397,426.794037 
	C529.163513,424.598572 531.377563,422.709778 533.652588,421.392517 
	C535.077271,420.567627 537.222839,420.987762 539.899109,420.887360 
	C546.701416,421.047974 549.695190,419.598145 549.484680,415.795288 
	C549.173645,410.176636 548.769104,404.521057 547.790588,398.989777 
	C545.305542,384.943146 542.480957,370.956543 539.788940,356.946533 
	C539.060547,353.156250 538.320374,349.368225 537.585571,345.579132 
	C537.019775,345.609406 536.453979,345.639648 535.888123,345.669922 
	C535.796448,347.088837 535.413452,348.560089 535.657471,349.918701 
	C538.556091,366.062775 541.654358,382.171631 544.452881,398.332611 
	C545.324890,403.367981 545.700684,408.529175 545.764282,413.639526 
	C545.782593,415.107269 543.915527,416.598480 542.007263,418.030518 
M468.833893,236.996719 
	C469.828888,237.086090 470.828125,237.142487 471.818207,237.270020 
	C480.570312,238.397522 484.289886,235.268661 485.158142,226.338364 
	C485.904602,218.661102 487.140411,211.021439 487.597382,203.331711 
	C487.745819,200.833572 486.833252,196.826859 485.152344,195.970337 
	C481.788513,194.256256 477.599243,194.580307 474.014435,196.481598 
	C477.797852,198.031525 483.294586,194.330551 485.141479,199.679932 
	C487.568665,206.709930 480.986969,208.863419 476.678162,212.515366 
	C478.679016,212.697052 480.679871,212.878723 483.259796,213.112991 
	C481.170502,217.985748 479.282043,222.390121 476.855652,228.049133 
	C476.009125,223.552017 475.451141,220.587875 474.893158,217.623734 
	C474.366058,217.705475 473.838989,217.787231 473.311890,217.868988 
	C473.311890,219.784851 472.921814,221.802612 473.390350,223.596069 
	C474.480286,227.768082 473.761932,231.083145 470.225525,233.787643 
	C469.243683,234.538483 468.750732,235.928558 467.340027,237.145279 
	C461.819244,241.490295 456.291748,245.826859 450.790375,250.196289 
	C450.348175,250.547516 450.085449,251.124725 449.739319,251.596924 
	C449.968353,251.932114 450.197388,252.267303 450.426453,252.602493 
	C454.603394,250.251984 458.780365,247.901459 463.879730,245.031860 
	C464.335846,248.380447 464.737701,251.049011 465.053284,253.727768 
	C465.361237,256.341644 465.367950,259.014587 465.950378,261.560181 
	C466.166260,262.503876 467.642578,263.159119 468.544098,263.945923 
	C468.709991,262.829468 469.055054,261.706207 469.013092,260.597626 
	C468.714844,252.721161 468.337402,244.847702 468.833893,236.996719 
M425.583099,270.378357 
	C441.423889,278.261749 457.053406,277.457550 472.373260,269.007202 
	C475.610535,267.221527 478.441437,267.144135 481.815582,268.587372 
	C493.361847,273.526154 505.010651,278.225220 516.620300,283.015717 
	C516.296265,281.056152 515.424194,279.519531 514.105469,278.786285 
	C511.364075,277.262024 508.407837,276.110809 505.501099,274.899506 
	C495.329346,270.660767 485.141022,266.461609 474.494934,262.055359 
	C474.326477,262.284271 473.649292,263.414734 472.764252,264.348175 
	C471.866638,265.294952 470.877289,266.271301 469.733490,266.850403 
	C455.757690,273.926331 441.629486,275.754730 426.770874,267.468140 
	C424.215607,267.761749 421.483612,267.576447 419.139343,268.441681 
	C412.927765,270.734283 406.820282,273.341217 400.788208,276.080292 
	C391.897247,280.117462 382.866821,283.946167 374.358765,288.693359 
	C368.637054,291.885864 367.815369,292.394226 365.414337,286.278442 
	C362.328796,278.419098 360.012054,270.251190 356.784424,262.456238 
	C353.808319,255.268784 350.206238,248.324051 346.552429,241.446381 
	C345.740387,239.917938 343.556580,239.118256 341.758514,237.283264 
	C341.532013,231.252777 343.292358,225.067184 337.591278,219.924347 
	C334.829620,217.433121 332.599091,215.854767 329.007446,216.366547 
	C320.694824,217.551056 317.284454,222.886932 319.609100,232.084213 
	C321.416565,239.235352 323.526886,246.357407 326.152649,253.244537 
	C331.894501,268.304657 337.824890,283.302429 344.114471,298.140747 
	C348.364288,308.166840 354.375671,316.865631 366.874176,316.862640 
	C372.134918,316.861420 377.483185,316.080536 382.631348,314.934143 
	C387.802216,313.782715 392.784210,311.767151 397.829742,310.072998 
	C404.004333,307.999725 405.559296,309.180359 406.054718,315.505035 
	C406.739624,324.248596 407.649292,332.981842 408.741425,341.684540 
	C410.635284,356.776306 414.490845,371.692474 412.212616,387.128479 
	C411.886841,389.335938 412.725983,391.715302 412.427826,394.372986 
	C411.478699,395.888763 410.079346,397.287598 409.650604,398.938477 
	C405.686951,414.201294 409.713593,429.212189 411.964417,444.342010 
	C412.733521,440.885406 413.388947,437.239777 412.618469,433.925598 
	C409.504364,420.530182 409.155121,407.256226 413.719330,394.031738 
	C431.618744,397.204315 449.514496,400.062836 467.655060,395.563110 
	C469.107758,395.202820 470.845764,396.105927 472.466278,396.285248 
	C475.864136,396.661255 479.276520,397.237305 482.674591,397.185364 
	C485.971039,397.135040 489.245636,396.231537 492.550446,396.010254 
	C496.821503,395.724182 498.697510,397.734314 499.027374,402.216858 
	C499.512268,408.805908 500.471832,415.400635 501.789490,421.878998 
	C504.238770,433.920807 507.497894,445.807129 509.682098,457.891510 
	C512.896667,475.676483 517.299316,493.319305 517.273010,511.581482 
	C517.270447,513.359619 517.720825,515.290527 518.493591,516.893738 
	C525.149292,530.701782 527.499634,545.123657 525.391235,560.341370 
	C525.064087,562.702881 525.391846,565.514587 526.413391,567.638916 
	C530.105652,575.317139 525.233521,580.748840 521.155457,585.562927 
	C517.552673,589.816101 511.755341,590.900818 506.061432,588.767761 
	C506.100525,588.531555 506.083984,588.298706 505.332642,587.826050 
	C500.095306,587.865234 494.854370,587.798584 489.621857,587.977966 
	C485.613647,588.115356 482.567352,586.830444 480.903870,582.304504 
	C481.102539,579.406433 482.286560,576.129089 481.340607,573.671692 
	C475.021576,557.256165 474.245789,540.333679 475.306976,523.051819 
	C475.690643,516.803101 476.077728,510.038452 474.167328,504.269531 
	C469.799622,491.080322 469.878387,477.412659 467.905731,463.978241 
	C467.765900,463.026001 467.221069,462.133179 466.864594,461.212738 
	C466.418030,461.278809 465.971466,461.344879 465.524902,461.410980 
	C465.678528,464.229706 465.642120,467.074188 466.019714,469.862610 
	C467.419464,480.199585 467.977814,490.789307 470.742737,500.759766 
	C473.051208,509.084198 472.475586,517.156799 472.773224,525.416870 
	C473.194946,537.119812 473.975311,548.829468 475.170013,560.478027 
	C475.977936,568.355713 477.762787,576.133301 479.087067,584.658936 
	C479.542969,587.743347 478.157257,589.575867 475.892670,591.794922 
	C473.362183,594.274414 470.891357,598.185547 470.956665,601.421814 
	C470.994965,603.320007 475.791290,605.888306 478.853607,606.820190 
	C489.440460,610.041687 500.279388,608.307373 511.025940,607.426880 
	C514.159912,607.170105 517.286743,606.614746 520.365845,605.957397 
	C523.423767,605.304565 524.856384,603.289429 524.387695,600.093384 
	C524.098145,598.118408 523.537781,596.136353 523.588623,594.170105 
	C523.652222,591.709167 523.547424,588.879639 524.687378,586.876099 
	C528.850464,579.559448 532.063232,572.292603 528.714539,563.704407 
	C528.262146,562.544373 528.520081,561.084778 528.543518,559.765564 
	C528.651794,553.689392 529.527893,547.516479 528.737915,541.562744 
	C527.742188,534.057739 525.459229,526.715942 523.607544,519.334900 
	C522.566650,515.185608 520.796631,511.168793 520.186035,506.971436 
	C518.252808,493.682007 517.305420,480.225525 514.862122,467.040192 
	C512.019409,451.699371 507.679657,436.640808 504.612152,421.334991 
	C502.822083,412.403229 501.419434,403.236603 501.319305,394.159363 
	C501.160156,379.731628 502.129028,365.284943 502.842590,350.857269 
	C503.120483,345.237885 503.999573,339.648285 504.604858,334.045105 
	C506.465759,335.464630 507.247437,336.900391 507.688080,338.434143 
	C509.234985,343.818665 510.081421,349.487762 512.274292,354.583923 
	C515.630676,362.384094 512.149963,370.113007 513.077087,377.780121 
	C514.547119,389.937988 516.279663,402.066650 518.124084,414.173737 
	C518.380981,415.859985 519.905151,417.353210 521.447449,419.956543 
	C520.774475,411.531067 520.267517,404.795074 519.678467,398.066284 
	C519.519104,396.246887 519.050415,394.456696 518.827209,392.640411 
	C517.879700,384.931732 516.957581,377.219879 516.052612,369.506104 
	C515.302002,363.108002 515.152649,356.577332 513.734192,350.333221 
	C511.220215,339.267090 507.962341,328.369171 504.976990,317.411438 
	C504.202820,314.569855 503.285004,311.767365 502.433167,308.946930 
	C501.954895,309.084991 501.476624,309.223083 500.998352,309.361176 
	C501.647064,314.194305 502.937988,319.044739 502.808136,323.856842 
	C502.553253,333.300476 501.472778,342.720245 500.797760,352.154480 
	C499.920319,364.418304 499.011963,376.681366 498.325409,388.956421 
	C498.142639,392.223694 496.206421,392.653076 493.746918,392.989655 
	C489.979706,393.505280 486.241180,394.287567 482.460876,394.629517 
	C480.193665,394.834686 477.518890,395.104248 475.641693,394.143860 
	C471.091949,391.816284 466.721161,392.181519 462.089630,393.398193 
	C447.643463,397.193115 433.304840,393.824249 418.965942,392.448517 
	C415.093994,392.077026 413.300568,389.630920 414.732910,385.286072 
	C415.589630,382.687317 415.939789,379.704529 415.657135,376.983765 
	C414.232727,363.271606 412.525391,349.588867 410.947021,335.095612 
	C410.945251,333.756866 410.943451,332.418091 410.953796,330.254425 
	C410.298462,324.831055 409.643097,319.407715 409.016541,313.166595 
	C409.036530,312.066284 409.056488,310.966003 408.688995,309.326355 
	C406.761292,308.240509 404.833557,307.154663 402.502411,306.063660 
	C402.502411,306.063660 402.098999,306.066742 401.351532,306.169495 
	C393.528748,308.447357 385.775391,311.009644 377.868011,312.941132 
	C363.497833,316.451263 355.128113,313.374725 349.547791,301.288025 
	C341.955719,284.843872 335.342194,267.948547 328.270508,251.263031 
	C327.028442,248.332397 328.030975,246.479050 330.729889,245.216232 
	C334.499054,243.452682 338.257690,241.666580 342.504852,240.379684 
	C347.894562,251.930679 353.410614,263.425262 358.608765,275.061829 
	C360.554230,279.416931 361.388489,284.275269 363.396881,288.593719 
	C365.853638,293.876312 369.140900,294.510864 374.439270,291.951843 
	C384.302002,287.188263 394.158905,282.396088 404.178802,277.980103 
	C410.982788,274.981445 418.060577,272.604004 425.583099,270.378357 
M476.003479,180.005524 
	C476.003479,180.005524 475.976562,179.982956 476.304718,180.544510 
	C479.089417,181.827530 482.188629,182.697388 484.570251,184.510010 
	C486.944153,186.316757 488.598480,189.068985 490.527130,191.357803 
	C492.593964,187.312683 491.883911,182.315613 488.192841,180.907166 
	C482.589294,178.768951 480.485748,174.207275 477.961945,169.441772 
	C474.268158,162.467133 470.651001,154.934402 461.187866,154.251266 
	C454.770538,153.787994 448.333862,153.593323 441.184387,153.180908 
	C439.067017,153.940994 433.762817,150.112656 435.099426,156.889359 
	C434.144989,156.630676 432.977142,156.638412 432.269501,156.071609 
	C426.022156,151.067520 419.805176,153.018463 413.571350,155.997513 
	C410.574951,157.429459 407.741516,159.573746 404.591400,160.230576 
	C399.089966,161.377701 396.979431,164.674622 395.975708,169.751892 
	C395.616333,171.569809 393.946350,174.025208 392.345459,174.538101 
	C386.883209,176.288010 385.688049,180.103134 386.123230,185.024353 
	C386.458191,188.812851 387.028137,192.580078 387.434296,196.363113 
	C387.554077,197.478699 387.962006,199.151108 387.406219,199.659882 
	C382.255066,204.375549 385.191406,209.531433 386.494690,214.488892 
	C388.853485,223.461258 399.472870,228.092484 409.082306,224.524460 
	C416.701477,221.695404 419.632751,212.419891 415.088409,203.660950 
	C414.408875,206.419312 414.188019,209.234207 414.021454,212.052307 
	C413.688721,217.682159 410.839508,220.977280 405.409729,221.960510 
	C396.274719,223.614670 390.413605,219.581131 387.957489,209.950073 
	C386.612885,204.677399 387.648071,203.235321 392.966980,202.932922 
	C397.948700,202.649704 402.937561,202.442245 407.906281,202.007370 
	C409.682678,201.851898 411.409363,201.128433 413.158752,200.664215 
	C413.056091,200.129822 412.953461,199.595428 412.850800,199.061035 
	C409.800781,199.277786 406.728210,199.818588 403.707825,199.608780 
	C401.289551,199.440811 397.871643,199.114929 396.755310,197.541199 
	C393.679749,193.205490 395.506989,186.589294 400.054047,183.728424 
	C402.397614,182.253906 405.039124,181.060898 407.707733,180.336349 
	C412.780121,178.959183 416.010071,176.345749 416.019836,170.703415 
	C416.030151,164.739151 420.059357,161.879547 424.866241,159.862396 
	C425.890381,159.432632 427.327057,159.985916 428.573639,160.086319 
	C428.353851,161.461014 428.433716,162.986206 427.838074,164.172134 
	C427.102325,165.636978 425.805145,166.819855 424.138611,168.881699 
	C434.962219,169.149658 444.065002,170.842758 451.038300,178.450073 
	C452.120972,179.631180 454.441711,179.597198 456.070923,180.374542 
	C459.262238,181.897202 462.365112,183.604614 465.514130,185.216949 
	C466.770325,185.860138 468.051788,186.454010 469.321747,187.070343 
	C469.606415,186.565079 469.891083,186.059814 470.175781,185.554550 
	C467.196838,183.396027 464.440399,179.862473 461.197083,179.337631 
	C451.592926,177.783447 445.737701,169.258911 436.624176,167.149353 
	C436.519073,167.125031 436.539856,166.557007 436.514832,166.241211 
	C443.355377,162.716995 449.261688,163.665894 454.722412,168.141464 
	C458.741730,171.435684 463.357208,174.050156 467.886169,176.656143 
	C470.411682,178.109314 473.303375,178.926132 476.003479,180.005524 
M420.001587,206.975357 
	C421.158569,206.967331 422.328766,207.070038 423.470428,206.933746 
	C432.602325,205.843613 432.386566,205.900208 435.294495,214.738312 
	C436.140442,217.309372 438.225525,220.876022 440.366486,221.390610 
	C454.573669,224.805328 464.359100,224.169846 464.704712,207.233002 
	C464.725067,206.236496 464.813385,205.241257 464.874695,204.245728 
	C465.128448,200.121872 463.203217,197.818497 459.062561,197.947693 
	C454.257782,198.097626 449.343170,198.040024 444.691376,199.056763 
	C436.311127,200.888412 428.090027,203.449249 419.813751,205.746170 
	C419.687775,205.781143 419.706757,206.338486 420.001587,206.975357 
M432.748383,264.464142 
	C433.185486,265.555756 433.622559,266.647400 434.059662,267.739014 
	C435.155182,266.142548 435.351013,264.738617 435.119019,263.409393 
	C434.375824,259.150665 435.317566,256.688629 440.386322,256.915039 
	C442.372772,257.003784 444.420929,255.710632 446.440979,255.046829 
	C446.338684,254.547302 446.236389,254.047791 446.134094,253.548279 
	C444.562531,253.389954 442.994293,253.171951 441.418793,253.083496 
	C434.171539,252.676575 426.865601,252.746063 419.686401,251.822922 
	C407.753418,250.288452 404.490387,246.952133 401.586090,235.231827 
	C401.114410,233.328354 400.363556,231.494080 399.358276,228.476837 
	C397.254608,236.385071 401.201202,247.664139 406.850555,250.272812 
	C411.593018,252.462738 416.782837,253.965164 421.932465,254.926712 
	C429.820526,256.399597 430.655273,256.728149 432.748383,264.464142 
M534.718445,328.854614 
	C536.297607,313.579987 528.231079,291.029785 518.304260,285.334625 
	C519.395447,287.928345 519.898376,289.762573 520.862183,291.309723 
	C526.630981,300.570435 531.347595,310.213959 532.731995,321.219940 
	C533.055481,323.791656 533.764771,326.314789 534.718445,328.854614 
M453.203613,190.057663 
	C443.853485,190.032333 443.885345,190.023834 441.465881,180.961136 
	C441.042389,179.374847 440.505890,177.678879 439.533813,176.406097 
	C436.974915,173.055634 433.613770,171.701202 429.270233,173.280685 
	C436.186127,175.087402 438.978973,179.526169 439.267365,186.389252 
	C439.350433,188.366501 441.581238,191.622131 443.251770,191.921219 
	C449.628937,193.063049 456.179260,193.237656 462.664886,193.773529 
	C462.752106,193.262314 462.839294,192.751099 462.926514,192.239883 
	C459.982788,191.512558 457.039032,190.785217 453.203613,190.057663 
M429.227234,241.338028 
	C430.340942,240.374710 431.454620,239.411392 432.568329,238.448074 
	C432.417847,237.945831 432.267365,237.443588 432.116852,236.941330 
	C426.152252,240.546570 420.705841,239.879990 415.755402,235.124435 
	C418.067444,241.184540 420.513977,242.295944 429.227234,241.338028 
z"/>
<path fill="#171717" opacity="1.000000" stroke="none" 
	d="
M410.917297,335.895782 
	C412.525391,349.588867 414.232727,363.271606 415.657135,376.983765 
	C415.939789,379.704529 415.589630,382.687317 414.732910,385.286072 
	C413.300568,389.630920 415.093994,392.077026 418.965942,392.448517 
	C433.304840,393.824249 447.643463,397.193115 462.089630,393.398193 
	C466.721161,392.181519 471.091949,391.816284 475.641693,394.143860 
	C477.518890,395.104248 480.193665,394.834686 482.460876,394.629517 
	C486.241180,394.287567 489.979706,393.505280 493.746918,392.989655 
	C496.206421,392.653076 498.142639,392.223694 498.325409,388.956421 
	C499.011963,376.681366 499.920319,364.418304 500.797760,352.154480 
	C501.472778,342.720245 502.553253,333.300476 502.808136,323.856842 
	C502.937988,319.044739 501.647064,314.194305 500.998352,309.361176 
	C501.476624,309.223083 501.954895,309.084991 502.433167,308.946930 
	C503.285004,311.767365 504.202820,314.569855 504.976990,317.411438 
	C507.962341,328.369171 511.220215,339.267090 513.734192,350.333221 
	C515.152649,356.577332 515.302002,363.108002 516.052612,369.506104 
	C516.957581,377.219879 517.879700,384.931732 518.827209,392.640411 
	C519.050415,394.456696 519.519104,396.246887 519.678467,398.066284 
	C520.267517,404.795074 520.774475,411.531067 521.447449,419.956543 
	C519.905151,417.353210 518.380981,415.859985 518.124084,414.173737 
	C516.279663,402.066650 514.547119,389.937988 513.077087,377.780121 
	C512.149963,370.113007 515.630676,362.384094 512.274292,354.583923 
	C510.081421,349.487762 509.234985,343.818665 507.688080,338.434143 
	C507.247437,336.900391 506.465759,335.464630 504.604858,334.045105 
	C503.999573,339.648285 503.120483,345.237885 502.842590,350.857269 
	C502.129028,365.284943 501.160156,379.731628 501.319305,394.159363 
	C501.419434,403.236603 502.822083,412.403229 504.612152,421.334991 
	C507.679657,436.640808 512.019409,451.699371 514.862122,467.040192 
	C517.305420,480.225525 518.252808,493.682007 520.186035,506.971436 
	C520.796631,511.168793 522.566650,515.185608 523.607544,519.334900 
	C525.459229,526.715942 527.742188,534.057739 528.737915,541.562744 
	C529.527893,547.516479 528.651794,553.689392 528.543518,559.765564 
	C528.520081,561.084778 528.262146,562.544373 528.714539,563.704407 
	C532.063232,572.292603 528.850464,579.559448 524.687378,586.876099 
	C523.547424,588.879639 523.652222,591.709167 523.588623,594.170105 
	C523.537781,596.136353 524.098145,598.118408 524.387695,600.093384 
	C524.856384,603.289429 523.423767,605.304565 520.365845,605.957397 
	C517.286743,606.614746 514.159912,607.170105 511.025940,607.426880 
	C500.279388,608.307373 489.440460,610.041687 478.853607,606.820190 
	C475.791290,605.888306 470.994965,603.320007 470.956665,601.421814 
	C470.891357,598.185547 473.362183,594.274414 475.892670,591.794922 
	C478.157257,589.575867 479.542969,587.743347 479.308716,584.199463 
	C479.948761,583.524841 480.367188,583.309753 480.785614,583.094604 
	C482.567352,586.830444 485.613647,588.115356 489.621857,587.977966 
	C494.854370,587.798584 500.095306,587.865234 505.668518,588.179321 
	C506.004425,588.532654 505.999390,588.997314 505.999390,588.997314 
	C511.755341,590.900818 517.552673,589.816101 521.155457,585.562927 
	C525.233521,580.748840 530.105652,575.317139 526.413391,567.638916 
	C525.391846,565.514587 525.064087,562.702881 525.391235,560.341370 
	C527.499634,545.123657 525.149292,530.701782 518.493591,516.893738 
	C517.720825,515.290527 517.270447,513.359619 517.273010,511.581482 
	C517.299316,493.319305 512.896667,475.676483 509.682098,457.891510 
	C507.497894,445.807129 504.238770,433.920807 501.789490,421.878998 
	C500.471832,415.400635 499.512268,408.805908 499.027374,402.216858 
	C498.697510,397.734314 496.821503,395.724182 492.550446,396.010254 
	C489.245636,396.231537 485.971039,397.135040 482.674591,397.185364 
	C479.276520,397.237305 475.864136,396.661255 472.466278,396.285248 
	C470.845764,396.105927 469.107758,395.202820 467.655060,395.563110 
	C449.514496,400.062836 431.618744,397.204315 413.359314,394.012573 
	C412.999329,393.993439 413.026031,394.015106 413.026031,394.015106 
	C412.725983,391.715302 411.886841,389.335938 412.212616,387.128479 
	C414.490845,371.692474 410.635284,356.776306 408.741425,341.684540 
	C407.649292,332.981842 406.739624,324.248596 406.054718,315.505035 
	C405.559296,309.180359 404.004333,307.999725 397.829742,310.072998 
	C392.784210,311.767151 387.802216,313.782715 382.631348,314.934143 
	C377.483185,316.080536 372.134918,316.861420 366.874176,316.862640 
	C354.375671,316.865631 348.364288,308.166840 344.114471,298.140747 
	C337.824890,283.302429 331.894501,268.304657 326.152649,253.244537 
	C323.526886,246.357407 321.416565,239.235352 319.609100,232.084213 
	C317.284454,222.886932 320.694824,217.551056 329.007446,216.366547 
	C332.599091,215.854767 334.829620,217.433121 337.591278,219.924347 
	C343.292358,225.067184 341.532013,231.252777 341.883240,237.951477 
	C342.012238,239.043167 342.016541,239.466644 342.020813,239.890137 
	C338.257690,241.666580 334.499054,243.452682 330.729889,245.216232 
	C328.030975,246.479050 327.028442,248.332397 328.270508,251.263031 
	C335.342194,267.948547 341.955719,284.843872 349.547791,301.288025 
	C355.128113,313.374725 363.497833,316.451263 377.868011,312.941132 
	C385.775391,311.009644 393.528748,308.447357 401.824982,306.125916 
	C402.298431,306.082306 402.602325,306.086456 402.602325,306.086456 
	C402.602325,306.086456 402.905823,306.068817 402.905823,306.068817 
	C404.833557,307.154663 406.761292,308.240509 408.777771,309.889587 
	C408.906921,311.630005 408.947357,312.807159 408.987732,313.984344 
	C409.643097,319.407715 410.298462,324.831055 410.845459,330.959595 
	C410.797180,333.075073 410.857239,334.485443 410.917297,335.895782 
M484.448578,605.073853 
	C494.198730,604.962036 503.949829,604.896118 513.698120,604.693420 
	C515.326843,604.659485 516.975037,604.136963 518.559143,603.658081 
	C522.356262,602.510254 521.236816,599.358337 520.693909,597.009460 
	C520.243164,595.059326 518.051453,591.686340 517.593628,591.838562 
	C511.344177,593.916565 505.540985,591.152527 499.560150,590.730103 
	C494.604767,590.380188 489.606750,590.657166 484.628174,590.604614 
	C480.846161,590.564697 473.349884,596.084778 473.802917,599.295166 
	C474.471008,604.029541 478.977020,604.093689 482.587341,604.974243 
	C482.904999,605.051636 483.248749,605.022278 484.448578,605.073853 
M332.712891,219.616547 
	C328.286072,218.511459 324.155975,220.166229 322.305298,223.622986 
	C321.085968,225.900497 322.639862,229.761841 323.225433,232.862366 
	C323.494598,234.287628 324.555756,235.544342 325.019928,236.955688 
	C326.005432,239.952194 327.097198,242.888611 331.052002,242.208115 
	C334.826385,241.558640 337.598419,239.878311 338.973999,235.685074 
	C341.259430,228.718460 336.373291,224.783737 332.712891,219.616547 
z"/>
<path fill="#171717" opacity="1.000000" stroke="none" 
	d="
M441.905823,153.278534 
	C448.333862,153.593323 454.770538,153.787994 461.187866,154.251266 
	C470.651001,154.934402 474.268158,162.467133 477.961945,169.441772 
	C480.485748,174.207275 482.589294,178.768951 488.192841,180.907166 
	C491.883911,182.315613 492.593964,187.312683 490.527130,191.357803 
	C488.598480,189.068985 486.944153,186.316757 484.570251,184.510010 
	C482.188629,182.697388 479.089417,181.827530 476.430359,180.166351 
	C476.880524,178.239685 477.924561,176.368240 477.400513,175.200623 
	C475.501953,170.970734 473.540283,166.611313 470.699554,163.013672 
	C468.550995,160.292542 465.253876,158.117294 462.022552,156.757599 
	C460.290558,156.028824 457.618103,157.535172 455.370056,158.032867 
	C456.327423,160.282196 456.683777,163.265808 458.359528,164.637466 
	C462.671631,168.166992 467.729218,170.773834 472.151550,174.186584 
	C473.903839,175.538895 474.763824,178.047546 476.030029,180.029724 
	C473.303375,178.926132 470.411682,178.109314 467.886169,176.656143 
	C463.357208,174.050156 458.741730,171.435684 454.722412,168.141464 
	C449.261688,163.665894 443.355377,162.716995 436.508362,166.242004 
	C436.539856,166.557007 436.519073,167.125031 436.624176,167.149353 
	C445.737701,169.258911 451.592926,177.783447 461.197083,179.337631 
	C464.440399,179.862473 467.196838,183.396027 470.175781,185.554550 
	C469.891083,186.059814 469.606415,186.565079 469.321747,187.070343 
	C468.051788,186.454010 466.770325,185.860138 465.514130,185.216949 
	C462.365112,183.604614 459.262238,181.897202 456.070923,180.374542 
	C454.441711,179.597198 452.120972,179.631180 451.038300,178.450073 
	C444.065002,170.842758 434.962219,169.149658 424.138611,168.881699 
	C425.805145,166.819855 427.102325,165.636978 427.838074,164.172134 
	C428.433716,162.986206 428.353851,161.461014 428.573669,160.086304 
	C427.327057,159.985916 425.890381,159.432632 424.866241,159.862396 
	C420.059357,161.879547 416.030151,164.739151 416.019836,170.703415 
	C416.010071,176.345749 412.780121,178.959183 407.707733,180.336349 
	C405.039124,181.060898 402.397614,182.253906 400.054047,183.728424 
	C395.506989,186.589294 393.679749,193.205490 396.755310,197.541199 
	C397.871643,199.114929 401.289551,199.440811 403.707825,199.608780 
	C406.728210,199.818588 409.800781,199.277786 412.850800,199.061035 
	C412.953461,199.595428 413.056091,200.129822 413.158752,200.664215 
	C411.409363,201.128433 409.682678,201.851898 407.906281,202.007370 
	C402.937561,202.442245 397.948700,202.649704 392.966980,202.932922 
	C387.648071,203.235321 386.612885,204.677399 387.957489,209.950073 
	C390.413605,219.581131 396.274719,223.614670 405.409729,221.960510 
	C410.839508,220.977280 413.688721,217.682159 414.021454,212.052307 
	C414.188019,209.234207 414.408875,206.419312 415.088409,203.660950 
	C419.632751,212.419891 416.701477,221.695404 409.082306,224.524460 
	C399.472870,228.092484 388.853485,223.461258 386.494690,214.488892 
	C385.191406,209.531433 382.255066,204.375549 387.406219,199.659882 
	C387.962006,199.151108 387.554077,197.478699 387.434296,196.363113 
	C387.028137,192.580078 386.458191,188.812851 386.123230,185.024353 
	C385.688049,180.103134 386.883209,176.288010 392.345459,174.538101 
	C393.946350,174.025208 395.616333,171.569809 395.975708,169.751892 
	C396.979431,164.674622 399.089966,161.377701 404.591400,160.230576 
	C407.741516,159.573746 410.574951,157.429459 413.571350,155.997513 
	C419.805176,153.018463 426.022156,151.067520 432.269501,156.071609 
	C432.977142,156.638412 434.144989,156.630676 435.693787,156.888275 
	C438.160736,155.684311 440.033295,154.481430 441.905823,153.278534 
M403.226837,164.090607 
	C401.551086,166.139587 398.865875,167.993408 398.423615,170.280884 
	C397.658691,174.237167 395.685516,176.127716 392.335083,177.912125 
	C390.453766,178.914078 389.547150,181.746155 388.201385,183.753693 
	C389.366730,184.430344 391.329437,185.907883 391.576355,185.662033 
	C394.666779,182.585251 398.082123,179.594879 400.247955,175.898956 
	C402.285400,172.422089 402.937408,168.133331 404.304565,164.098770 
	C404.304565,164.098770 404.308502,163.754517 404.308502,163.754517 
	C404.308502,163.754517 403.904480,163.868103 403.226837,164.090607 
M413.089417,163.943787 
	C406.501434,164.910187 402.723877,170.431305 403.574585,177.850296 
	C409.927734,178.249237 413.545990,175.404205 413.983551,169.607193 
	C414.120331,167.795410 414.120819,165.973358 414.685455,163.740479 
	C418.065735,161.063339 421.446014,158.386200 424.556122,155.923035 
	C418.241150,155.487152 413.931885,158.548615 413.089417,163.943787 
M439.415222,162.251053 
	C442.757751,162.024902 446.100311,161.798767 449.842712,161.545563 
	C446.670471,156.058334 442.681122,156.309906 435.087067,162.006958 
	C436.633026,162.159836 437.654541,162.260849 439.415222,162.251053 
M392.997559,198.152237 
	C392.698883,195.405243 392.400177,192.658249 392.101501,189.911255 
	C391.459656,190.021591 390.817780,190.131927 390.175903,190.242279 
	C388.894409,193.326416 389.947723,195.937195 392.997559,198.152237 
z"/>
<path fill="#171717" opacity="1.000000" stroke="none" 
	d="
M410.083710,476.968140 
	C413.487701,484.784790 415.661652,492.744995 414.780121,501.481232 
	C414.051819,508.699310 414.507172,516.035278 413.809937,523.258362 
	C412.343811,538.447510 414.534851,553.896484 410.143280,568.893188 
	C407.423676,578.180237 411.613739,585.635681 421.058228,587.048523 
	C431.020081,588.538757 441.210052,589.076294 451.293060,589.004395 
	C459.466522,588.946106 463.789276,583.149231 462.878662,574.928467 
	C461.644318,563.784973 461.217438,552.779114 464.309082,541.770325 
	C465.084961,539.007507 464.665527,535.198853 463.287781,532.703186 
	C461.064972,528.676575 460.535706,524.889893 461.982361,520.778809 
	C465.566406,510.593628 464.437531,501.767059 455.091766,495.077545 
	C454.765076,494.843719 454.689972,494.258392 454.463715,493.762573 
	C460.248169,494.448975 465.379913,499.277924 465.634094,504.922943 
	C465.857300,509.880005 465.056976,514.877441 465.162964,519.847290 
	C465.248718,523.870178 465.953827,527.886230 466.493622,531.890564 
	C466.798553,534.152283 468.191315,536.644836 467.607452,538.586426 
	C464.319702,549.520020 464.811493,560.675842 465.015167,571.826172 
	C465.145233,578.946655 465.016449,585.823730 458.912842,591.060608 
	C458.004608,591.839783 458.145111,594.425720 458.523529,596.002380 
	C459.399445,599.651794 458.173981,601.984741 454.705048,602.889343 
	C451.193939,603.804871 447.573151,604.888489 444.002563,604.880859 
	C431.521637,604.854126 419.024353,604.665588 406.573608,603.890686 
	C403.499207,603.699341 398.985352,601.698792 398.044373,599.359070 
	C397.148743,597.132141 399.196381,592.246643 401.464996,590.516113 
	C406.900757,586.369446 409.920288,582.285278 407.220367,575.218384 
	C406.472809,573.261658 407.103577,570.546143 407.705261,568.343628 
	C411.783203,553.415527 410.980347,538.156250 411.112640,522.943420 
	C411.187836,514.294617 412.021729,505.634491 411.726624,497.006409 
	C411.507080,490.587402 410.023254,484.211670 409.347076,477.401123 
	C409.591644,476.985626 410.083710,476.968140 410.083710,476.968140 
M412.851135,587.791992 
	C410.962311,588.204163 408.833710,588.198181 407.234283,589.115112 
	C403.861145,591.049072 399.264526,592.965942 400.646179,597.840576 
	C401.911530,602.305054 406.549866,601.907898 410.373199,602.032471 
	C420.317749,602.356567 430.262878,602.889648 440.207214,602.877625 
	C443.925415,602.873108 447.784119,601.985107 451.298798,600.721375 
	C453.021851,600.101929 454.104828,597.702148 455.477448,596.108093 
	C453.622620,594.778198 451.893341,592.544678 449.892334,592.266663 
	C437.808685,590.587646 425.662872,589.355896 412.851135,587.791992 
z"/>
<path fill="#1A1A1A" opacity="1.000000" stroke="none" 
	d="
M342.262848,240.134918 
	C342.016541,239.466644 342.012238,239.043167 342.006165,238.301361 
	C343.556580,239.118256 345.740387,239.917938 346.552429,241.446381 
	C350.206238,248.324051 353.808319,255.268784 356.784424,262.456238 
	C360.012054,270.251190 362.328796,278.419098 365.414337,286.278442 
	C367.815369,292.394226 368.637054,291.885864 374.358765,288.693359 
	C382.866821,283.946167 391.897247,280.117462 400.788208,276.080292 
	C406.820282,273.341217 412.927765,270.734283 419.139343,268.441681 
	C421.483612,267.576447 424.215607,267.761749 426.770630,267.837952 
	C426.185547,268.788116 425.600739,269.368439 425.015930,269.948761 
	C418.060577,272.604004 410.982788,274.981445 404.178802,277.980103 
	C394.158905,282.396088 384.302002,287.188263 374.439270,291.951843 
	C369.140900,294.510864 365.853638,293.876312 363.396881,288.593719 
	C361.388489,284.275269 360.554230,279.416931 358.608765,275.061829 
	C353.410614,263.425262 347.894562,251.930679 342.262848,240.134918 
z"/>
<path fill="#161616" opacity="1.000000" stroke="none" 
	d="
M419.829834,206.813705 
	C419.706757,206.338486 419.687775,205.781143 419.813751,205.746170 
	C428.090027,203.449249 436.311127,200.888412 444.691376,199.056763 
	C449.343170,198.040024 454.257782,198.097626 459.062561,197.947693 
	C463.203217,197.818497 465.128448,200.121872 464.874695,204.245728 
	C464.813385,205.241257 464.725067,206.236496 464.704712,207.233002 
	C464.359100,224.169846 454.573669,224.805328 440.366486,221.390610 
	C438.225525,220.876022 436.140442,217.309372 435.294495,214.738312 
	C432.386566,205.900208 432.602325,205.843613 423.470428,206.933746 
	C422.328766,207.070038 421.158569,206.967331 419.829834,206.813705 
M458.764648,216.085159 
	C459.493652,213.211334 460.542419,210.374359 460.878754,207.455292 
	C461.420532,202.753174 459.748688,200.942810 454.991882,201.074722 
	C449.858734,201.217072 444.718597,201.638672 439.625671,202.285904 
	C438.520386,202.426346 436.935089,203.904266 436.704468,205.003906 
	C434.858643,213.804688 440.168976,220.322525 449.100616,219.801300 
	C452.207550,219.619995 455.216614,217.761200 458.764648,216.085159 
z"/>
<path fill="#161616" opacity="1.000000" stroke="none" 
	d="
M480.844727,582.699585 
	C480.367188,583.309753 479.948761,583.524841 479.320496,583.847778 
	C477.762787,576.133301 475.977936,568.355713 475.170013,560.478027 
	C473.975311,548.829468 473.194946,537.119812 472.773224,525.416870 
	C472.475586,517.156799 473.051208,509.084198 470.742737,500.759766 
	C467.977814,490.789307 467.419464,480.199585 466.019714,469.862610 
	C465.642120,467.074188 465.678528,464.229706 465.524902,461.410980 
	C465.971466,461.344879 466.418030,461.278809 466.864594,461.212738 
	C467.221069,462.133179 467.765900,463.026001 467.905731,463.978241 
	C469.878387,477.412659 469.799622,491.080322 474.167328,504.269531 
	C476.077728,510.038452 475.690643,516.803101 475.306976,523.051819 
	C474.245789,540.333679 475.021576,557.256165 481.340607,573.671692 
	C482.286560,576.129089 481.102539,579.406433 480.844727,582.699585 
z"/>
<path fill="#181818" opacity="1.000000" stroke="none" 
	d="
M425.299500,270.163574 
	C425.600739,269.368439 426.185547,268.788116 427.030579,268.024231 
	C441.629486,275.754730 455.757690,273.926331 469.733490,266.850403 
	C470.877289,266.271301 471.866638,265.294952 472.764252,264.348175 
	C473.649292,263.414734 474.326477,262.284271 474.494934,262.055359 
	C485.141022,266.461609 495.329346,270.660767 505.501099,274.899506 
	C508.407837,276.110809 511.364075,277.262024 514.105469,278.786285 
	C515.424194,279.519531 516.296265,281.056152 516.620300,283.015717 
	C505.010651,278.225220 493.361847,273.526154 481.815582,268.587372 
	C478.441437,267.144135 475.610535,267.221527 472.373260,269.007202 
	C457.053406,277.457550 441.423889,278.261749 425.299500,270.163574 
z"/>
<path fill="#181818" opacity="1.000000" stroke="none" 
	d="
M468.033447,237.025345 
	C468.750732,235.928558 469.243683,234.538483 470.225525,233.787643 
	C473.761932,231.083145 474.480286,227.768082 473.390350,223.596069 
	C472.921814,221.802612 473.311890,219.784851 473.311890,217.868988 
	C473.838989,217.787231 474.366058,217.705475 474.893158,217.623734 
	C475.451141,220.587875 476.009125,223.552017 476.855652,228.049133 
	C479.282043,222.390121 481.170502,217.985748 483.259796,213.112991 
	C480.679871,212.878723 478.679016,212.697052 476.678162,212.515366 
	C480.986969,208.863419 487.568665,206.709930 485.141479,199.679932 
	C483.294586,194.330551 477.797852,198.031525 474.014435,196.481598 
	C477.599243,194.580307 481.788513,194.256256 485.152344,195.970337 
	C486.833252,196.826859 487.745819,200.833572 487.597382,203.331711 
	C487.140411,211.021439 485.904602,218.661102 485.158142,226.338364 
	C484.289886,235.268661 480.570312,238.397522 471.818207,237.270020 
	C470.828125,237.142487 469.828888,237.086090 468.420959,236.998566 
	C468.008026,237.000412 468.033447,237.025345 468.033447,237.025345 
M475.403046,234.583145 
	C482.066162,233.116577 484.363068,229.272537 481.916290,223.086411 
	C479.647308,226.897400 477.492340,230.516891 475.403046,234.583145 
z"/>
<path fill="#171717" opacity="1.000000" stroke="none" 
	d="
M542.912842,418.078949 
	C543.915527,416.598480 545.782593,415.107269 545.764282,413.639526 
	C545.700684,408.529175 545.324890,403.367981 544.452881,398.332611 
	C541.654358,382.171631 538.556091,366.062775 535.657471,349.918701 
	C535.413452,348.560089 535.796448,347.088837 535.888123,345.669922 
	C536.453979,345.639648 537.019775,345.609406 537.585571,345.579132 
	C538.320374,349.368225 539.060547,353.156250 539.788940,356.946533 
	C542.480957,370.956543 545.305542,384.943146 547.790588,398.989777 
	C548.769104,404.521057 549.173645,410.176636 549.484680,415.795288 
	C549.695190,419.598145 546.701416,421.047974 539.669617,420.651581 
	C540.597717,419.636841 541.755310,418.857910 542.912842,418.078949 
z"/>
<path fill="#161616" opacity="1.000000" stroke="none" 
	d="
M432.641846,264.103516 
	C430.655273,256.728149 429.820526,256.399597 421.932465,254.926712 
	C416.782837,253.965164 411.593018,252.462738 406.850555,250.272812 
	C401.201202,247.664139 397.254608,236.385071 399.358276,228.476837 
	C400.363556,231.494080 401.114410,233.328354 401.586090,235.231827 
	C404.490387,246.952133 407.753418,250.288452 419.686401,251.822922 
	C426.865601,252.746063 434.171539,252.676575 441.418793,253.083496 
	C442.994293,253.171951 444.562531,253.389954 446.134094,253.548279 
	C446.236389,254.047791 446.338684,254.547302 446.440979,255.046829 
	C444.420929,255.710632 442.372772,257.003784 440.386322,256.915039 
	C435.317566,256.688629 434.375824,259.150665 435.119019,263.409393 
	C435.351013,264.738617 435.155182,266.142548 434.059662,267.739014 
	C433.622559,266.647400 433.185486,265.555756 432.641846,264.103516 
z"/>
<path fill="#181818" opacity="1.000000" stroke="none" 
	d="
M542.460083,418.054749 
	C541.755310,418.857910 540.597717,419.636841 539.242554,420.632507 
	C537.222839,420.987762 535.077271,420.567627 533.652588,421.392517 
	C531.377563,422.709778 529.163513,424.598572 527.819397,426.794037 
	C527.374329,427.521057 529.885010,429.849182 530.695435,431.606171 
	C531.697632,433.778900 532.575562,436.068146 533.074219,438.399658 
	C533.758789,441.600403 534.355774,444.722809 538.107483,445.656555 
	C543.205017,446.925201 547.428101,443.095215 546.664001,437.799072 
	C546.190369,434.515808 545.326904,431.290375 544.712708,428.025024 
	C544.465759,426.712158 544.417542,425.361877 544.986755,423.907074 
	C548.355408,429.393280 549.786316,435.459717 549.327881,441.655151 
	C548.987244,446.259216 544.146057,448.924835 538.727722,448.565857 
	C533.572021,448.224243 531.860962,446.075287 530.940369,440.701050 
	C530.523621,438.267792 528.175781,436.222290 527.392944,433.780060 
	C526.454285,430.851807 525.676086,427.649658 525.876465,424.635773 
	C526.119873,420.972778 528.817322,418.682678 532.533936,418.298065 
	C535.667358,417.973816 538.847717,418.102386 542.460083,418.054749 
z"/>
<path fill="#161616" opacity="1.000000" stroke="none" 
	d="
M459.855255,493.126282 
	C459.638916,492.163086 459.177338,491.182526 459.243896,490.239227 
	C459.973572,479.900940 460.894623,469.575195 461.533875,459.231842 
	C461.911987,453.113251 461.862610,446.968781 462.042755,440.837067 
	C462.099274,438.913391 462.277222,436.993317 463.168701,435.072571 
	C463.485321,443.662476 470.470978,451.903046 463.986633,460.851196 
	C462.910553,462.336151 462.667053,464.607086 462.520416,466.551178 
	C461.900665,474.766388 461.463104,482.995392 460.772217,491.816986 
	C460.342102,492.651855 460.098694,492.889069 459.855255,493.126282 
z"/>
<path fill="#181818" opacity="1.000000" stroke="none" 
	d="
M534.507507,328.857452 
	C533.764771,326.314789 533.055481,323.791656 532.731995,321.219940 
	C531.347595,310.213959 526.630981,300.570435 520.862183,291.309723 
	C519.898376,289.762573 519.395447,287.928345 518.304260,285.334625 
	C528.231079,291.029785 536.297607,313.579987 534.507507,328.857452 
z"/>
<path fill="#161616" opacity="1.000000" stroke="none" 
	d="
M453.649475,190.057770 
	C457.039032,190.785217 459.982788,191.512558 462.926514,192.239883 
	C462.839294,192.751099 462.752106,193.262314 462.664886,193.773529 
	C456.179260,193.237656 449.628937,193.063049 443.251770,191.921219 
	C441.581238,191.622131 439.350433,188.366501 439.267365,186.389252 
	C438.978973,179.526169 436.186127,175.087402 429.270233,173.280685 
	C433.613770,171.701202 436.974915,173.055634 439.533813,176.406097 
	C440.505890,177.678879 441.042389,179.374847 441.465881,180.961136 
	C443.885345,190.023834 443.853485,190.032333 453.649475,190.057770 
z"/>
<path fill="#181818" opacity="1.000000" stroke="none" 
	d="
M467.996582,236.986847 
	C468.337402,244.847702 468.714844,252.721161 469.013092,260.597626 
	C469.055054,261.706207 468.709991,262.829468 468.544098,263.945923 
	C467.642578,263.159119 466.166260,262.503876 465.950378,261.560181 
	C465.367950,259.014587 465.361237,256.341644 465.053284,253.727768 
	C464.737701,251.049011 464.335846,248.380447 463.879730,245.031860 
	C458.780365,247.901459 454.603394,250.251984 450.426453,252.602493 
	C450.197388,252.267303 449.968353,251.932114 449.739319,251.596924 
	C450.085449,251.124725 450.348175,250.547516 450.790375,250.196289 
	C456.291748,245.826859 461.819244,241.490295 467.686737,237.085312 
	C468.033447,237.025345 468.008026,237.000412 467.996582,236.986847 
z"/>
<path fill="#171717" opacity="1.000000" stroke="none" 
	d="
M412.987061,393.981110 
	C409.155121,407.256226 409.504364,420.530182 412.618469,433.925598 
	C413.388947,437.239777 412.733521,440.885406 411.964417,444.342010 
	C409.713593,429.212189 405.686951,414.201294 409.650604,398.938477 
	C410.079346,397.287598 411.478699,395.888763 412.726929,394.194031 
	C413.026031,394.015106 412.999329,393.993439 412.987061,393.981110 
z"/>
<path fill="#1A1A1A" opacity="1.000000" stroke="none" 
	d="
M428.893555,241.526276 
	C420.513977,242.295944 418.067444,241.184540 415.755402,235.124435 
	C420.705841,239.879990 426.152252,240.546570 432.116852,236.941330 
	C432.267365,237.443588 432.417847,237.945831 432.568329,238.448074 
	C431.454620,239.411392 430.340942,240.374710 428.893555,241.526276 
z"/>
<path fill="#171717" opacity="1.000000" stroke="none" 
	d="
M409.113068,469.997375 
	C409.640564,463.569672 410.168060,457.141937 411.055969,450.351288 
	C411.416351,449.988342 411.898010,450.001038 411.898010,450.001038 
	C411.422180,456.466217 410.946350,462.931427 410.024689,469.701538 
	C409.578857,470.006439 409.113068,469.997375 409.113068,469.997375 
z"/>
<path fill="#161616" opacity="1.000000" stroke="none" 
	d="
M441.545105,153.229736 
	C440.033295,154.481430 438.160736,155.684311 436.059570,156.893127 
	C433.762817,150.112656 439.067017,153.940994 441.545105,153.229736 
z"/>
<path fill="#161616" opacity="1.000000" stroke="none" 
	d="
M409.092224,470.434937 
	C409.113068,469.997375 409.578857,470.006439 409.812134,470.011536 
	C410.058716,472.044708 410.072021,474.072845 410.084534,476.534546 
	C410.083710,476.968140 409.591644,476.985626 409.346283,476.993652 
	C409.091064,474.958618 409.081207,472.915558 409.092224,470.434937 
z"/>
<path fill="#171717" opacity="1.000000" stroke="none" 
	d="
M460.011841,493.257324 
	C460.098694,492.889069 460.342102,492.651855 460.765167,492.237091 
	C461.204926,492.550934 461.465057,493.042328 461.725189,493.533722 
	C461.206268,493.485291 460.687317,493.436829 460.011841,493.257324 
z"/>
<path fill="#181818" opacity="1.000000" stroke="none" 
	d="
M410.932159,335.495697 
	C410.857239,334.485443 410.797180,333.075073 410.839386,331.372040 
	C410.943451,332.418091 410.945251,333.756866 410.932159,335.495697 
z"/>
<path fill="#181818" opacity="1.000000" stroke="none" 
	d="
M409.002136,313.575470 
	C408.947357,312.807159 408.906921,311.630005 408.971497,310.159241 
	C409.056488,310.966003 409.036530,312.066284 409.002136,313.575470 
z"/>
<path fill="#161616" opacity="1.000000" stroke="none" 
	d="
M411.843323,449.909729 
	C411.898010,450.001038 411.416351,449.988342 411.175049,449.981140 
	C411.218719,449.922089 411.503693,449.870270 411.843323,449.909729 
z"/>
<path fill="#161616" opacity="1.000000" stroke="none" 
	d="
M506.030396,588.882568 
	C505.999390,588.997314 506.004425,588.532654 506.008118,588.300903 
	C506.083984,588.298706 506.100525,588.531555 506.030396,588.882568 
z"/>
<path fill="#181818" opacity="1.000000" stroke="none" 
	d="
M402.704102,306.066223 
	C402.905823,306.068817 402.602325,306.086456 402.602325,306.086456 
	C402.602325,306.086456 402.298431,306.082306 402.198730,306.074524 
	C402.098999,306.066742 402.502411,306.063660 402.704102,306.066223 
z"/>
<path fill="#000000" opacity="1.000000" stroke="none" 
	d="
M484.014465,605.058228 
	C483.248749,605.022278 482.904999,605.051636 482.587341,604.974243 
	C478.977020,604.093689 474.471008,604.029541 473.802917,599.295166 
	C473.349884,596.084778 480.846161,590.564697 484.628174,590.604614 
	C489.606750,590.657166 494.604767,590.380188 499.560150,590.730103 
	C505.540985,591.152527 511.344177,593.916565 517.593628,591.838562 
	C518.051453,591.686340 520.243164,595.059326 520.693909,597.009460 
	C521.236816,599.358337 522.356262,602.510254 518.559143,603.658081 
	C516.975037,604.136963 515.326843,604.659485 513.698120,604.693420 
	C503.949829,604.896118 494.198730,604.962036 484.014465,605.058228 
z"/>
<path fill="#000000" opacity="1.000000" stroke="none" 
	d="
M333.029480,219.798553 
	C336.373291,224.783737 341.259430,228.718460 338.973999,235.685074 
	C337.598419,239.878311 334.826385,241.558640 331.052002,242.208115 
	C327.097198,242.888611 326.005432,239.952194 325.019928,236.955688 
	C324.555756,235.544342 323.494598,234.287628 323.225433,232.862366 
	C322.639862,229.761841 321.085968,225.900497 322.305298,223.622986 
	C324.155975,220.166229 328.286072,218.511459 333.029480,219.798553 
z"/>
<path fill="#000000" opacity="1.000000" stroke="none" 
	d="
M476.016785,180.017609 
	C474.763824,178.047546 473.903839,175.538895 472.151550,174.186584 
	C467.729218,170.773834 462.671631,168.166992 458.359528,164.637466 
	C456.683777,163.265808 456.327423,160.282196 455.370056,158.032867 
	C457.618103,157.535172 460.290558,156.028824 462.022552,156.757599 
	C465.253876,158.117294 468.550995,160.292542 470.699554,163.013672 
	C473.540283,166.611313 475.501953,170.970734 477.400513,175.200623 
	C477.924561,176.368240 476.880524,178.239685 476.266296,179.885574 
	C475.976562,179.982956 476.003479,180.005524 476.016785,180.017609 
z"/>
<path fill="#000000" opacity="1.000000" stroke="none" 
	d="
M414.183685,164.156006 
	C414.120819,165.973358 414.120331,167.795410 413.983551,169.607193 
	C413.545990,175.404205 409.927734,178.249237 403.574585,177.850296 
	C402.723877,170.431305 406.501434,164.910187 413.557404,163.982819 
	C414.025391,164.021835 414.183685,164.156006 414.183685,164.156006 
z"/>
<path fill="#000000" opacity="1.000000" stroke="none" 
	d="
M404.198944,164.201782 
	C402.937408,168.133331 402.285400,172.422089 400.247955,175.898956 
	C398.082123,179.594879 394.666779,182.585251 391.576355,185.662033 
	C391.329437,185.907883 389.366730,184.430344 388.201385,183.753693 
	C389.547150,181.746155 390.453766,178.914078 392.335083,177.912125 
	C395.685516,176.127716 397.658691,174.237167 398.423615,170.280884 
	C398.865875,167.993408 401.551086,166.139587 403.639038,164.062988 
	C404.051208,164.035370 404.198944,164.201782 404.198944,164.201782 
z"/>
<path fill="#000000" opacity="1.000000" stroke="none" 
	d="
M439.045654,162.306458 
	C437.654541,162.260849 436.633026,162.159836 435.087067,162.006958 
	C442.681122,156.309906 446.670471,156.058334 449.842712,161.545563 
	C446.100311,161.798767 442.757751,162.024902 439.045654,162.306458 
z"/>
<path fill="#000000" opacity="1.000000" stroke="none" 
	d="
M413.946167,163.954834 
	C413.931885,158.548615 418.241150,155.487152 424.556122,155.923035 
	C421.446014,158.386200 418.065735,161.063339 414.434570,163.948242 
	C414.183685,164.156006 414.025391,164.021835 413.946167,163.954834 
z"/>
<path fill="#000000" opacity="1.000000" stroke="none" 
	d="
M392.765991,198.194672 
	C389.947723,195.937195 388.894409,193.326416 390.175903,190.242279 
	C390.817780,190.131927 391.459656,190.021591 392.101501,189.911255 
	C392.400177,192.658249 392.698883,195.405243 392.765991,198.194672 
z"/>
<path fill="#000000" opacity="1.000000" stroke="none" 
	d="
M403.977844,163.951736 
	C403.904480,163.868103 404.308502,163.754517 404.308502,163.754517 
	C404.308502,163.754517 404.304565,164.098770 404.251770,164.150269 
	C404.198944,164.201782 404.051208,164.035370 403.977844,163.951736 
z"/>
<path fill="#000000" opacity="1.000000" stroke="none" 
	d="
M413.194489,587.883301 
	C425.662872,589.355896 437.808685,590.587646 449.892334,592.266663 
	C451.893341,592.544678 453.622620,594.778198 455.477478,596.108093 
	C454.104828,597.702148 453.021851,600.101929 451.298798,600.721375 
	C447.784119,601.985107 443.925415,602.873108 440.207214,602.877625 
	C430.262878,602.889648 420.317749,602.356567 410.373199,602.032471 
	C406.549866,601.907898 401.911530,602.305054 400.646179,597.840576 
	C399.264526,592.965942 403.861145,591.049072 407.234283,589.115112 
	C408.833710,588.198181 410.962311,588.204163 413.194489,587.883301 
z"/>
<path fill="#000000" opacity="1.000000" stroke="none" 
	d="
M458.517517,216.376862 
	C455.216614,217.761200 452.207550,219.619995 449.100616,219.801300 
	C440.168976,220.322525 434.858643,213.804688 436.704468,205.003906 
	C436.935089,203.904266 438.520386,202.426346 439.625671,202.285904 
	C444.718597,201.638672 449.858734,201.217072 454.991882,201.074722 
	C459.748688,200.942810 461.420532,202.753174 460.878754,207.455292 
	C460.542419,210.374359 459.493652,213.211334 458.517517,216.376862 
z"/>
<path fill="#000000" opacity="1.000000" stroke="none" 
	d="
M475.370209,234.359756 
	C477.492340,230.516891 479.647308,226.897400 481.916290,223.086411 
	C484.363068,229.272537 482.066162,233.116577 475.370209,234.359756 
z"/>
</svg>